<svg width="720" height="525" viewBox="0 0 720 525" fill="none" xmlns="http://www.w3.org/2000/svg">
<path d="M166.916 397.313L222.667 331.192L97.8116 271.313L33.3333 347.787L136.604 397.313H166.916V397.313Z" fill="#F0F0F0"/>
<path fill-rule="evenodd" clip-rule="evenodd" d="M106.667 416.313H244V396.313H106.667V416.313ZM242.216 415.023H108.45V397.604H242.216V415.023Z" fill="#3F3D56"/>
<path d="M228.667 413.313C233.453 413.313 237.333 410.403 237.333 406.813C237.333 403.224 233.453 400.313 228.667 400.313C223.88 400.313 220 403.224 220 406.813C220 410.403 223.88 413.313 228.667 413.313Z" fill="#222F65"/>
<path d="M202 413.313C206.786 413.313 210.667 410.403 210.667 406.813C210.667 403.224 206.786 400.313 202 400.313C197.213 400.313 193.333 403.224 193.333 406.813C193.333 410.403 197.213 413.313 202 413.313Z" fill="#222F65"/>
<path d="M178 413.313C182.786 413.313 186.667 410.403 186.667 406.813C186.667 403.224 182.786 400.313 178 400.313C173.213 400.313 169.333 403.224 169.333 406.813C169.333 410.403 173.213 413.313 178 413.313Z" fill="#222F65"/>
<path d="M152.667 413.313C157.453 413.313 161.333 410.403 161.333 406.813C161.333 403.224 157.453 400.313 152.667 400.313C147.88 400.313 144 403.224 144 406.813C144 410.403 147.88 413.313 152.667 413.313Z" fill="#222F65"/>
<path d="M127.333 413.313C132.12 413.313 136 410.403 136 406.813C136 403.224 132.12 400.313 127.333 400.313C122.547 400.313 118.667 403.224 118.667 406.813C118.667 410.403 122.547 413.313 127.333 413.313Z" fill="#222F65"/>
<path d="M409.95 185.254V134.179H444V109.313H277.333V234.313H419.806V222.092C419.806 217.491 422.243 213.078 426.581 209.825C430.919 206.571 436.803 204.743 442.938 204.743H444V185.254H409.95Z" fill="#F0F0F0"/>
<rect width="53.9622" height="41.9228" transform="matrix(0.982962 -0.18381 0.315462 0.948938 63.5327 9.91879)" fill="#F0F0F0"/>
<rect x="482.667" y="432.313" width="112" height="17" fill="#222F65"/>
<rect x="453.333" y="346.313" width="164" height="16" fill="#F0F0F0"/>
<rect y="523.313" width="698.667" height="1" fill="#3F3D56"/>
<path fill-rule="evenodd" clip-rule="evenodd" d="M441.38 524.313H645.286C658.561 524.302 669.318 516.238 669.333 506.287V222.34C669.318 212.389 658.561 204.325 645.286 204.313H441.38C428.106 204.325 417.348 212.389 417.333 222.34V506.287C417.349 516.238 428.106 524.302 441.38 524.313ZM419.127 222.34C419.141 213.131 429.096 205.668 441.38 205.658H645.286C657.571 205.668 667.526 213.131 667.54 222.34V506.287C667.526 515.496 657.571 522.958 645.286 522.969H441.38C429.096 522.958 419.141 515.496 419.127 506.287V222.34Z" fill="#3F3D56"/>
<path fill-rule="evenodd" clip-rule="evenodd" d="M514.667 214.313C514.667 216.522 517.055 218.313 520 218.313C522.944 218.311 525.33 216.521 525.333 214.313C525.333 212.104 522.945 210.313 520 210.313C517.055 210.313 514.667 212.104 514.667 214.313ZM516.444 214.313C516.444 212.841 518.036 211.647 520 211.647C521.963 211.648 523.553 212.841 523.555 214.313C523.555 215.786 521.964 216.98 520 216.98C518.036 216.98 516.444 215.786 516.444 214.313Z" fill="#3F3D56"/>
<rect x="533.333" y="213.313" width="40.0001" height="1" fill="#3F3D56"/>
<path d="M654.667 223.313V277.313C614.903 277.312 582.669 253.136 582.667 223.313H654.667Z" fill="#222F65"/>
<path fill-rule="evenodd" clip-rule="evenodd" d="M433.333 506.313H654.667V223.313H433.333V506.313ZM652.874 504.969H435.125V224.658H652.874V504.969Z" fill="#3F3D56"/>
<path opacity="0.1" d="M602 274.313C615.623 274.313 626.667 266.031 626.667 255.813C626.667 245.596 615.623 237.313 602 237.313C588.377 237.313 577.333 245.596 577.333 255.813C577.333 266.031 588.377 274.313 602 274.313Z" fill="black"/>
<path d="M598 276.313C611.623 276.313 622.667 268.031 622.667 257.813C622.667 247.596 611.623 239.313 598 239.313C584.377 239.313 573.333 247.596 573.333 257.813C573.333 268.031 584.377 276.313 598 276.313Z" fill="#222F65"/>
<rect x="442.667" y="234.313" width="34.6667" height="9" fill="#3F3D56"/>
<rect x="461.333" y="324.313" width="34.6666" height="9" fill="#3F3D56"/>
<path fill-rule="evenodd" clip-rule="evenodd" d="M462.667 359.313H628V342.313H462.667V359.313ZM626.203 358.006H464.464V343.621H626.203V358.006Z" fill="#3F3D56"/>
<rect x="453.333" y="397.313" width="164" height="16" fill="#F0F0F0"/>
<rect x="461.333" y="374.313" width="34.6666" height="9" fill="#3F3D56"/>
<path fill-rule="evenodd" clip-rule="evenodd" d="M462.667 410.313H628V393.313H462.667V410.313ZM626.203 409.006H464.464V394.621H626.203V409.006Z" fill="#3F3D56"/>
<path fill-rule="evenodd" clip-rule="evenodd" d="M488 445.313H601.333V427.313H488V445.313ZM599.534 444.028H489.799V428.599H599.534V444.028Z" fill="#3F3D56"/>
<path d="M621.333 352.813C621.333 355.555 619.04 358.001 615.6 358.929C612.161 359.857 608.316 359.067 605.988 356.954L605.979 356.947C603.711 354.884 603.36 351.989 605.093 349.652C606.827 347.316 610.292 346.014 613.824 346.372C617.357 346.73 620.237 348.675 621.082 351.273C621.082 351.275 621.083 351.276 621.084 351.277C621.086 351.279 621.088 351.279 621.091 351.279C621.251 351.782 621.332 352.297 621.333 352.813V352.813Z" fill="#222F65"/>
<path opacity="0.1" d="M621.333 352.438C621.333 355.338 618.98 357.926 615.452 358.907C611.924 359.889 607.979 359.053 605.591 356.818L605.582 356.811C605.418 356.279 605.334 355.735 605.333 355.188C605.334 352.289 607.686 349.701 611.214 348.719C614.742 347.738 618.687 348.574 621.075 350.809C621.075 350.811 621.076 350.813 621.078 350.814C621.08 350.815 621.082 350.816 621.084 350.816C621.249 351.348 621.332 351.892 621.333 352.438V352.438Z" fill="black"/>
<path d="M616.667 362.313C621.453 362.313 625.333 359.403 625.333 355.813C625.333 352.224 621.453 349.313 616.667 349.313C611.88 349.313 608 352.224 608 355.813C608 359.403 611.88 362.313 616.667 362.313Z" fill="#222F65"/>
<path d="M621.333 402.813C621.333 405.555 619.04 408.001 615.6 408.929C612.161 409.857 608.316 409.067 605.988 406.954L605.979 406.947C603.711 404.884 603.36 401.989 605.093 399.652C606.827 397.316 610.292 396.014 613.824 396.372C617.357 396.73 620.237 398.675 621.082 401.273C621.082 401.275 621.083 401.276 621.084 401.277C621.086 401.279 621.088 401.279 621.091 401.279C621.251 401.782 621.332 402.297 621.333 402.813V402.813Z" fill="#222F65"/>
<path opacity="0.1" d="M621.333 403.438C621.333 406.338 618.98 408.926 615.452 409.907C611.924 410.889 607.979 410.053 605.591 407.818L605.582 407.811C605.418 407.279 605.334 406.735 605.333 406.188C605.334 403.289 607.686 400.701 611.214 399.719C614.742 398.738 618.687 399.574 621.075 401.809C621.075 401.811 621.076 401.813 621.078 401.814C621.08 401.815 621.082 401.816 621.084 401.816C621.249 402.348 621.332 402.892 621.333 403.438V403.438Z" fill="black"/>
<path d="M616.667 413.313C621.453 413.313 625.333 410.403 625.333 406.813C625.333 403.224 621.453 400.313 616.667 400.313C611.88 400.313 608 403.224 608 406.813C608 410.403 611.88 413.313 616.667 413.313Z" fill="#222F65"/>
<rect x="420" y="141.313" width="46.6666" height="35" fill="#F0F0F0"/>
<path fill-rule="evenodd" clip-rule="evenodd" d="M590.667 158.313C590.667 162.732 595.442 166.313 601.333 166.313C607.222 166.308 611.993 162.73 612 158.313C612 153.895 607.224 150.313 601.333 150.313C595.442 150.313 590.667 153.895 590.667 158.313ZM592.444 158.313C592.444 154.632 596.424 151.647 601.333 151.647C606.24 151.651 610.217 154.633 610.222 158.313C610.222 161.995 606.242 164.98 601.333 164.98C596.424 164.98 592.444 161.995 592.444 158.313Z" fill="#3F3D56"/>
<path fill-rule="evenodd" clip-rule="evenodd" d="M342.667 279.313H365.333V262.313H342.667V279.313ZM363.59 278.006H344.41V263.621H363.59V278.006Z" fill="#3F3D56"/>
<path fill-rule="evenodd" clip-rule="evenodd" d="M697.333 410.313H720V393.313H697.333V410.313ZM718.256 409.006H699.077V394.621H718.256V409.006Z" fill="#3F3D56"/>
<path d="M260 293.218L263.997 294.843L277.597 300.379L299.554 309.313L312.349 291.384C314.783 287.982 315.325 283.988 313.856 280.284C312.386 276.579 309.026 273.468 304.516 271.637C294.725 267.644 282.641 268.882 274.613 274.701L274.606 274.706C272.681 276.102 271.057 277.717 269.791 279.492L260 293.218Z" fill="#2F2E41"/>
<path d="M320 473.394L317.426 496.274L307.77 497.313L301.333 471.313L320 473.394V473.394Z" fill="#FFB8B8"/>
<path d="M304.469 497.932C304.469 497.932 317.237 492.8 319.924 496.905C319.924 496.905 317.909 509.222 325.972 510.761C334.036 512.301 337.396 523.078 325.972 524.104C314.549 525.13 307.157 522.051 303.125 522.051C299.093 522.051 303.125 511.274 303.125 511.274L304.469 497.932Z" fill="#2F2E41"/>
<path d="M238.667 473.394L241.242 496.274L250.897 497.313L257.333 471.313L238.667 473.394V473.394Z" fill="#FFB8B8"/>
<path d="M255.531 497.932C255.531 497.932 242.763 492.8 240.075 496.905C240.075 496.905 242.091 509.222 234.028 510.761C225.964 512.301 222.604 523.078 234.028 524.104C245.451 525.13 252.843 522.051 256.875 522.051C260.907 522.051 256.875 511.274 256.875 511.274L255.531 497.932Z" fill="#2F2E41"/>
<path d="M292.667 297.313C302.608 297.313 310.667 291.269 310.667 283.813C310.667 276.358 302.608 270.313 292.667 270.313C282.726 270.313 274.667 276.358 274.667 283.813C274.667 291.269 282.726 297.313 292.667 297.313Z" fill="#FFB8B8"/>
<path d="M238.667 309.113L252.659 325.807L269.317 324.796L296.636 326.313C296.636 326.313 299.215 322.398 301.321 318.589C302.473 316.686 303.36 314.697 303.966 312.655C304.632 309.113 295.304 305.572 295.304 305.572C295.304 305.572 294.937 305.522 294.324 305.41C293.511 305.264 292.259 305.021 290.886 304.667C287.788 303.867 284.063 302.512 283.31 300.513C281.977 296.972 291.972 291.913 291.972 291.913L279.978 283.313C279.978 283.313 269.324 294.549 256.384 297.109C255.634 297.259 254.873 297.377 254.105 297.463C254.065 297.468 254.032 297.473 253.992 297.478C239.999 298.996 238.667 309.113 238.667 309.113Z" fill="#FFB8B8"/>
<path d="M245.686 305.313L237.969 309.852C237.969 309.852 231.654 331.534 233.759 337.585C235.864 343.636 233.058 349.183 233.058 350.191C233.058 351.2 226.744 389.019 226.744 389.019C226.744 389.019 214.115 409.189 227.445 407.172C240.775 405.155 235.864 384.985 235.864 384.985L252 349.687V319.937L245.686 305.313Z" fill="#FFB8B8"/>
<path d="M298.728 309.313L304.183 312.313L306.91 354.309L327.367 390.305C327.367 390.305 342.368 407.803 332.822 408.303C323.275 408.803 317.138 390.305 317.138 390.305L298.728 355.809L296 322.312L298.728 309.313Z" fill="#FFB8B8"/>
<path d="M264.979 311.313C264.979 311.313 278.428 318.391 299.947 315.863C299.947 315.863 305.999 324.963 302.637 330.019C299.275 335.074 306.672 347.207 308.016 348.724C309.361 350.24 324.828 381.584 330.208 415.456C335.587 449.327 350.381 472.582 337.605 475.616C324.828 478.649 298.602 482.188 295.912 479.154C293.222 476.121 289.188 400.795 289.188 400.795L281.791 429.611C281.791 429.611 291.877 478.649 284.48 479.66C277.083 480.671 230.684 477.638 232.029 471.571C233.374 465.505 246.823 433.655 246.823 433.655C246.823 433.655 246.15 369.957 259.599 357.824C259.599 357.824 264.979 351.251 257.582 342.657C250.185 334.063 250.858 320.413 250.858 320.413C250.858 320.413 256.237 320.413 264.979 311.313Z" fill="#2F2E41"/>
<path d="M253.333 297.666L264.107 316.313L266.667 315.306L255.522 297.313L253.333 297.666V297.666Z" fill="#2F2E41"/>
<path d="M290.667 305.313L299.269 319.313L301.333 319.177L300.632 316.794L294.181 306.054C293.35 305.908 292.07 305.666 290.667 305.313Z" fill="#2F2E41"/>
<path d="M263.169 294.337C264.488 297.603 268.222 299.942 272.645 300.273C277.069 300.605 281.319 298.864 283.432 295.855C274.944 287.315 282.224 281.95 296.013 277.891C298.137 274.857 297.668 271.136 294.825 268.473C287.128 267.716 279.398 269.674 273.79 273.802L273.783 273.807L263.987 287.79C262.578 289.798 262.282 292.159 263.169 294.337V294.337Z" fill="#2F2E41"/>
<path d="M283.333 288.313C284.438 288.313 285.333 286.97 285.333 285.313C285.333 283.657 284.438 282.313 283.333 282.313C282.229 282.313 281.333 283.657 281.333 285.313C281.333 286.97 282.229 288.313 283.333 288.313Z" fill="#FFB8B8"/>
<path d="M290.667 280.435L310.949 287.313L314.667 281.172C314.026 278.927 312.685 276.828 310.753 275.046L296.793 270.313L290.667 280.435Z" fill="#2F2E41"/>
<path d="M339.333 415.313C344.12 415.313 348 412.403 348 408.813C348 405.224 344.12 402.313 339.333 402.313C334.547 402.313 330.667 405.224 330.667 408.813C330.667 412.403 334.547 415.313 339.333 415.313Z" fill="#222F65"/>
<path d="M51.3333 455.313C54.6471 455.313 57.3334 453.299 57.3334 450.813C57.3334 448.328 54.6471 446.313 51.3333 446.313C48.0196 446.313 45.3333 448.328 45.3333 450.813C45.3333 453.299 48.0196 455.313 51.3333 455.313Z" fill="#FF6584"/>
<rect x="78.6667" y="474.313" width="1.33325" height="50" fill="#3F3D56"/>
<path d="M80 480.313C85.1546 480.313 89.3333 477.179 89.3333 473.313C89.3333 469.447 85.1546 466.313 80 466.313C74.8454 466.313 70.6667 469.447 70.6667 473.313C70.6667 477.179 74.8454 480.313 80 480.313Z" fill="#3F3D56"/>
<path d="M78.6667 504.313C78.6667 504.313 77.3644 483.041 50.6667 485.513Z" fill="#3F3D56"/>
</svg>
